<svg width="693" height="112" viewBox="0 0 693 112" fill="none" xmlns="http://www.w3.org/2000/svg">
<path d="M98.45 85.05V97H92.95V63.65H106.15C109.95 63.65 112.883 64.5333 114.95 66.3C117.05 68.0667 118.1 70.7 118.1 74.2C118.1 77.7 117.05 80.3833 114.95 82.25C112.883 84.1167 109.95 85.05 106.15 85.05H98.45ZM98.45 80.35H105.45C106.883 80.35 108.05 80.2 108.95 79.9C109.85 79.5667 110.55 79.1167 111.05 78.55C111.55 77.95 111.883 77.3 112.05 76.6C112.25 75.9 112.35 75.1667 112.35 74.4C112.35 73.6333 112.25 72.8833 112.05 72.15C111.883 71.4167 111.55 70.7667 111.05 70.2C110.55 69.6 109.85 69.1333 108.95 68.8C108.05 68.4667 106.883 68.3 105.45 68.3H98.45V80.35ZM135.238 97.75C132.772 97.75 130.622 97.25 128.788 96.25C126.988 95.25 125.588 93.7667 124.588 91.8C123.622 89.8333 123.138 87.4333 123.138 84.6C123.138 80.2333 124.155 76.9333 126.188 74.7C128.255 72.4333 131.122 71.3 134.788 71.3C137.488 71.3 139.672 71.9 141.338 73.1C143.005 74.3 144.205 75.9833 144.938 78.15C145.705 80.2833 146.072 82.7833 146.038 85.65H126.288L126.138 81.75H142.038L140.788 83C140.688 80.4333 140.155 78.5667 139.188 77.4C138.222 76.2 136.705 75.6 134.638 75.6C133.305 75.6 132.172 75.8833 131.238 76.45C130.305 76.9833 129.588 77.9167 129.088 79.25C128.622 80.55 128.388 82.35 128.388 84.65C128.388 87.45 129.038 89.5833 130.338 91.05C131.638 92.4833 133.555 93.2 136.088 93.2C137.222 93.2 138.272 93.1 139.238 92.9C140.238 92.7 141.155 92.45 141.988 92.15C142.822 91.8167 143.538 91.5 144.138 91.2V96.05C142.972 96.55 141.655 96.95 140.188 97.25C138.722 97.5833 137.072 97.75 135.238 97.75ZM163.125 97.5C161.592 97.5 160.092 97.2833 158.625 96.85C157.158 96.4167 155.825 95.7167 154.625 94.75C153.458 93.75 152.525 92.4333 151.825 90.8C151.125 89.1333 150.775 87.0667 150.775 84.6C150.775 82.0667 151.108 79.95 151.775 78.25C152.442 76.55 153.358 75.2 154.525 74.2C155.692 73.1667 157.008 72.4333 158.475 72C159.975 71.5667 161.508 71.35 163.075 71.35C164.408 71.35 165.742 71.4833 167.075 71.75C168.408 71.9833 169.642 72.35 170.775 72.85V77.55C169.642 77.05 168.508 76.6667 167.375 76.4C166.242 76.1 165.058 75.95 163.825 75.95C161.225 75.95 159.258 76.6 157.925 77.9C156.625 79.2 155.975 81.3 155.975 84.2C155.975 87.2 156.592 89.4 157.825 90.8C159.092 92.1667 161.142 92.85 163.975 92.85C165.208 92.85 166.408 92.7 167.575 92.4C168.742 92.0667 169.825 91.6667 170.825 91.2V95.9C169.658 96.4333 168.442 96.8333 167.175 97.1C165.908 97.3667 164.558 97.5 163.125 97.5ZM156.925 103.3L161.175 97.25H164.875L161.975 103.3H156.925ZM185.98 97.75C184.68 97.75 183.43 97.6167 182.23 97.35C181.03 97.1167 179.93 96.7 178.93 96.1C177.963 95.5 177.18 94.6833 176.58 93.65C176.013 92.5833 175.73 91.2667 175.73 89.7C175.73 87.8333 176.096 86.3 176.83 85.1C177.563 83.9 178.613 83 179.98 82.4C181.346 81.8 182.98 81.5 184.88 81.5C186.146 81.5 187.28 81.6 188.28 81.8C189.313 82 190.23 82.2833 191.03 82.65C191.863 82.9833 192.563 83.3667 193.13 83.8L193.68 87.25C192.946 86.75 191.963 86.3333 190.73 86C189.496 85.6333 188.163 85.45 186.73 85.45C184.83 85.45 183.38 85.7833 182.38 86.45C181.413 87.1167 180.93 88.1167 180.93 89.45C180.93 90.45 181.213 91.2667 181.78 91.9C182.346 92.5 183.046 92.95 183.88 93.25C184.746 93.5167 185.646 93.65 186.58 93.65C188.546 93.65 189.996 93.5167 190.93 93.25C191.863 92.9833 192.33 92.3667 192.33 91.4V80.9C192.33 79.1333 191.796 77.85 190.73 77.05C189.663 76.2167 188.146 75.8 186.18 75.8C184.78 75.8 183.33 76.0333 181.83 76.5C180.33 76.9333 179.096 77.55 178.13 78.35V73.45C179.063 72.8167 180.413 72.3167 182.18 71.95C183.98 71.55 185.83 71.35 187.73 71.35C188.663 71.35 189.596 71.45 190.53 71.65C191.496 71.8167 192.396 72.1 193.23 72.5C194.063 72.8667 194.796 73.3833 195.43 74.05C196.096 74.6833 196.613 75.4667 196.98 76.4C197.346 77.3333 197.53 78.4333 197.53 79.7V91.7C197.53 93.3333 197.013 94.6 195.98 95.5C194.98 96.3667 193.613 96.95 191.88 97.25C190.146 97.5833 188.18 97.75 185.98 97.75ZM215.866 106.65V102.15C217.066 102.15 217.999 102 218.666 101.7C219.333 101.4 219.799 100.917 220.066 100.25C220.333 99.5833 220.466 98.7667 220.466 97.8V71.9H225.716V97.9C225.716 100 225.316 101.683 224.516 102.95C223.749 104.25 222.616 105.183 221.116 105.75C219.649 106.35 217.899 106.65 215.866 106.65ZM220.316 67.75V63H225.866V67.75H220.316ZM242.376 97.75C241.076 97.75 239.826 97.6167 238.626 97.35C237.426 97.1167 236.326 96.7 235.326 96.1C234.36 95.5 233.576 94.6833 232.976 93.65C232.41 92.5833 232.126 91.2667 232.126 89.7C232.126 87.8333 232.493 86.3 233.226 85.1C233.96 83.9 235.01 83 236.376 82.4C237.743 81.8 239.376 81.5 241.276 81.5C242.543 81.5 243.676 81.6 244.676 81.8C245.71 82 246.626 82.2833 247.426 82.65C248.26 82.9833 248.96 83.3667 249.526 83.8L250.076 87.25C249.343 86.75 248.36 86.3333 247.126 86C245.893 85.6333 244.56 85.45 243.126 85.45C241.226 85.45 239.776 85.7833 238.776 86.45C237.81 87.1167 237.326 88.1167 237.326 89.45C237.326 90.45 237.61 91.2667 238.176 91.9C238.743 92.5 239.443 92.95 240.276 93.25C241.143 93.5167 242.043 93.65 242.976 93.65C244.943 93.65 246.393 93.5167 247.326 93.25C248.26 92.9833 248.726 92.3667 248.726 91.4V80.9C248.726 79.1333 248.193 77.85 247.126 77.05C246.06 76.2167 244.543 75.8 242.576 75.8C241.176 75.8 239.726 76.0333 238.226 76.5C236.726 76.9333 235.493 77.55 234.526 78.35V73.45C235.46 72.8167 236.81 72.3167 238.576 71.95C240.376 71.55 242.226 71.35 244.126 71.35C245.06 71.35 245.993 71.45 246.926 71.65C247.893 71.8167 248.793 72.1 249.626 72.5C250.46 72.8667 251.193 73.3833 251.826 74.05C252.493 74.6833 253.01 75.4667 253.376 76.4C253.743 77.3333 253.926 78.4333 253.926 79.7V91.7C253.926 93.3333 253.41 94.6 252.376 95.5C251.376 96.3667 250.01 96.95 248.276 97.25C246.543 97.5833 244.576 97.75 242.376 97.75ZM242.226 68.6L244.826 62.7H250.076L245.326 68.6H242.226ZM282.763 97.75C280.963 97.75 279.429 97.55 278.163 97.15C276.929 96.7833 275.713 96.3167 274.513 95.75V90.8C275.379 91.3333 276.229 91.8167 277.063 92.25C277.896 92.65 278.763 92.9667 279.663 93.2C280.596 93.4333 281.629 93.55 282.763 93.55C284.196 93.55 285.313 93.25 286.113 92.65C286.946 92.05 287.363 91.3 287.363 90.4C287.363 89.6333 287.096 89.0333 286.563 88.6C286.063 88.1667 285.413 87.8 284.613 87.5C283.813 87.2 282.979 86.9 282.113 86.6C281.213 86.3667 280.313 86.1 279.413 85.8C278.513 85.4667 277.679 85.0333 276.913 84.5C276.179 83.9333 275.579 83.2167 275.112 82.35C274.679 81.4833 274.463 80.4167 274.463 79.15C274.463 77.75 274.746 76.5667 275.313 75.6C275.879 74.6 276.613 73.8 277.513 73.2C278.446 72.5667 279.463 72.1167 280.563 71.85C281.696 71.55 282.796 71.4 283.863 71.4C285.629 71.4333 287.063 71.65 288.163 72.05C289.296 72.45 290.396 72.9333 291.463 73.5L291.513 78C290.313 77.3667 289.179 76.8167 288.113 76.35C287.046 75.8833 285.813 75.65 284.413 75.65C283.113 75.65 282.029 75.9 281.163 76.4C280.296 76.8667 279.863 77.5667 279.863 78.5C279.863 79.3 280.096 79.9333 280.563 80.4C281.063 80.8667 281.696 81.2333 282.463 81.5C283.263 81.7667 284.113 82.0333 285.012 82.3C285.846 82.5667 286.713 82.85 287.613 83.15C288.513 83.4167 289.346 83.8167 290.113 84.35C290.879 84.8833 291.496 85.5833 291.963 86.45C292.463 87.3167 292.713 88.45 292.713 89.85C292.679 91.7167 292.179 93.2333 291.213 94.4C290.279 95.5667 289.046 96.4167 287.513 96.95C285.979 97.4833 284.396 97.75 282.763 97.75ZM309.952 97.75C307.652 97.75 305.669 97.3833 304.002 96.65C302.369 95.8833 301.102 94.75 300.202 93.25C299.302 91.75 298.852 89.8833 298.852 87.65V71.9H304.102V86.9C304.102 89.0333 304.569 90.6167 305.502 91.65C306.469 92.65 307.952 93.15 309.952 93.15C311.952 93.15 313.419 92.65 314.352 91.65C315.319 90.6167 315.802 89.0333 315.802 86.9V71.9H320.852V87.65C320.852 90.9833 319.886 93.5 317.952 95.2C316.052 96.9 313.386 97.75 309.952 97.75ZM337.347 97.75C336.047 97.75 334.797 97.6167 333.597 97.35C332.397 97.1167 331.297 96.7 330.297 96.1C329.33 95.5 328.547 94.6833 327.947 93.65C327.38 92.5833 327.097 91.2667 327.097 89.7C327.097 87.8333 327.464 86.3 328.197 85.1C328.93 83.9 329.98 83 331.347 82.4C332.714 81.8 334.347 81.5 336.247 81.5C337.514 81.5 338.647 81.6 339.647 81.8C340.68 82 341.597 82.2833 342.397 82.65C343.23 82.9833 343.93 83.3667 344.497 83.8L345.047 87.25C344.314 86.75 343.33 86.3333 342.097 86C340.864 85.6333 339.53 85.45 338.097 85.45C336.197 85.45 334.747 85.7833 333.747 86.45C332.78 87.1167 332.297 88.1167 332.297 89.45C332.297 90.45 332.58 91.2667 333.147 91.9C333.714 92.5 334.414 92.95 335.247 93.25C336.114 93.5167 337.014 93.65 337.947 93.65C339.914 93.65 341.364 93.5167 342.297 93.25C343.23 92.9833 343.697 92.3667 343.697 91.4V80.9C343.697 79.1333 343.164 77.85 342.097 77.05C341.03 76.2167 339.514 75.8 337.547 75.8C336.147 75.8 334.697 76.0333 333.197 76.5C331.697 76.9333 330.464 77.55 329.497 78.35V73.45C330.43 72.8167 331.78 72.3167 333.547 71.95C335.347 71.55 337.197 71.35 339.097 71.35C340.03 71.35 340.964 71.45 341.897 71.65C342.864 71.8167 343.764 72.1 344.597 72.5C345.43 72.8667 346.164 73.3833 346.797 74.05C347.464 74.6833 347.98 75.4667 348.347 76.4C348.714 77.3333 348.897 78.4333 348.897 79.7V91.7C348.897 93.3333 348.38 94.6 347.347 95.5C346.347 96.3667 344.98 96.95 343.247 97.25C341.514 97.5833 339.547 97.75 337.347 97.75ZM371.753 97V50.31H383.303L399.333 72.64L393.173 72.85L409.763 50.31H421.033V97H409.693V58.85L411.933 62.49L395.973 83.7L380.153 62.14L382.603 60.46V97H371.753ZM444.252 98.05C442.106 98.05 440.076 97.84 438.162 97.42C436.296 97.0467 434.639 96.4167 433.192 95.53C431.792 94.5967 430.696 93.36 429.902 91.82C429.109 90.2333 428.712 88.2733 428.712 85.94C428.712 83.7467 429.156 81.8333 430.042 80.2C430.976 78.5667 432.376 77.3067 434.242 76.42C436.109 75.5333 438.466 75.09 441.312 75.09C442.899 75.09 444.439 75.2533 445.932 75.58C447.426 75.9067 448.756 76.35 449.922 76.91C451.136 77.47 452.092 78.0767 452.792 78.73L453.212 83.77C452.279 83.21 451.159 82.7667 449.852 82.44C448.546 82.1133 447.146 81.95 445.652 81.95C443.366 81.95 441.686 82.3 440.612 83C439.586 83.6533 439.072 84.7033 439.072 86.15C439.072 87.0367 439.329 87.83 439.842 88.53C440.356 89.23 441.032 89.7667 441.872 90.14C442.759 90.5133 443.669 90.7 444.602 90.7C446.982 90.7 448.639 90.5367 449.572 90.21C450.552 89.8833 451.042 89.23 451.042 88.25V75.23C451.042 73.0833 450.342 71.5433 448.942 70.61C447.589 69.63 445.652 69.14 443.132 69.14C441.079 69.14 439.002 69.5133 436.902 70.26C434.849 70.96 433.169 71.8233 431.862 72.85V63.61C433.076 62.8633 434.942 62.1633 437.462 61.51C440.029 60.8567 442.899 60.53 446.072 60.53C447.192 60.53 448.429 60.6233 449.782 60.81C451.136 60.9967 452.489 61.3467 453.842 61.86C455.196 62.3267 456.432 63.0267 457.552 63.96C458.719 64.8933 459.652 66.0833 460.352 67.53C461.052 68.9767 461.402 70.7733 461.402 72.92L461.332 89.65C461.332 91.6567 460.656 93.29 459.302 94.55C457.949 95.7633 455.989 96.65 453.422 97.21C450.902 97.77 447.846 98.05 444.252 98.05ZM470.661 97V65.29C471.314 64.73 472.481 64.1 474.161 63.4C475.841 62.6533 477.754 62 479.901 61.44C482.094 60.8333 484.288 60.53 486.481 60.53C488.674 60.53 490.401 60.6933 491.661 61.02C492.921 61.3467 493.878 61.7667 494.531 62.28V69.91C493.738 69.7233 492.734 69.5833 491.521 69.49C490.308 69.3967 489.048 69.35 487.741 69.35C486.434 69.3033 485.198 69.3033 484.031 69.35C482.864 69.3967 481.884 69.49 481.091 69.63V97H470.661ZM533.502 73.2V97H523.072V75.3C523.072 74.4133 522.932 73.5967 522.652 72.85C522.419 72.1033 522.046 71.4733 521.532 70.96C521.019 70.4 520.319 69.98 519.432 69.7C518.546 69.3733 517.472 69.21 516.212 69.21C515.139 69.21 514.136 69.35 513.202 69.63C512.316 69.8633 511.592 70.12 511.032 70.4V97H500.602V64.59C501.489 64.1233 502.656 63.6567 504.102 63.19C505.549 62.6767 507.136 62.2333 508.862 61.86C510.589 61.4867 512.316 61.1833 514.042 60.95C515.816 60.7167 517.449 60.6 518.942 60.6C522.116 60.6 524.776 61.02 526.922 61.86C529.116 62.6533 530.749 63.96 531.822 65.78C532.942 67.6 533.502 70.0733 533.502 73.2ZM522.792 66.97C524.239 65.71 525.989 64.6133 528.042 63.68C530.096 62.7 532.266 61.9533 534.552 61.44C536.839 60.88 538.962 60.6 540.922 60.6C544.096 60.6 546.756 61.02 548.902 61.86C551.096 62.6533 552.729 63.96 553.802 65.78C554.922 67.6 555.482 70.0733 555.482 73.2V97H545.052V75.3C545.052 74.4133 544.912 73.5967 544.632 72.85C544.399 72.1033 544.026 71.4733 543.512 70.96C542.999 70.4 542.299 69.98 541.412 69.7C540.526 69.3733 539.452 69.21 538.192 69.21C537.119 69.21 536.116 69.3733 535.182 69.7C534.296 69.98 533.572 70.3533 533.012 70.82L522.792 66.97ZM564.934 97V62.07H575.364L575.434 97H564.934ZM564.724 56.75V48.7H575.504V56.75H564.724ZM599.243 98.4C595.136 98.4 592.079 97.4433 590.073 95.53C588.066 93.57 587.063 90.8167 587.063 87.27V69.56H581.883V61.58H587.063V51.85H597.983V61.58H605.753V69.56H597.983V85.94C597.983 87.1533 598.239 88.0633 598.753 88.67C599.266 89.23 600.129 89.51 601.343 89.51C602.043 89.51 602.813 89.37 603.653 89.09C604.493 88.81 605.193 88.46 605.753 88.04V97C604.773 97.5133 603.699 97.8633 602.533 98.05C601.413 98.2833 600.316 98.4 599.243 98.4ZM614.019 97V50.31H646.009V59.06H625.359V69.21H643.279V78.03H625.359V88.25H646.009V97H614.019ZM672.663 82.86L663.003 97H652.013L667.903 76.21L672.663 82.86ZM690.023 97H677.633L652.363 61.58H664.683L690.023 97ZM669.583 76.07L679.523 61.58H690.583L674.343 82.86L669.583 76.07Z" fill="white"/>
<path d="M4.08 58V17.98H13.08L32.76 44.08L29.46 51.04V17.98H39.42V58H31.5L11.7 32.56L13.98 27.64V58H4.08ZM59.2566 58.9C57.2966 58.9 55.4766 58.72 53.7966 58.36C52.1566 58.04 50.7166 57.48 49.4766 56.68C48.2366 55.88 47.2766 54.78 46.5966 53.38C45.9166 51.98 45.5766 50.28 45.5766 48.28C45.5766 46.48 45.9366 44.9 46.6566 43.54C47.4166 42.18 48.5966 41.1 50.1966 40.3C51.7966 39.5 53.8366 39.1 56.3166 39.1C57.6366 39.1 58.9366 39.26 60.2166 39.58C61.4966 39.86 62.6566 40.26 63.6966 40.78C64.7366 41.26 65.5366 41.8 66.0966 42.4L66.3966 46.84C65.5966 46.4 64.6966 46.06 63.6966 45.82C62.6966 45.54 61.6566 45.4 60.5766 45.4C58.7366 45.4 57.3966 45.66 56.5566 46.18C55.7566 46.66 55.3566 47.48 55.3566 48.64C55.3566 49.24 55.5366 49.8 55.8966 50.32C56.2966 50.84 56.7966 51.26 57.3966 51.58C58.0366 51.9 58.7166 52.06 59.4366 52.06C61.3566 52.06 62.6566 51.94 63.3366 51.7C64.0566 51.46 64.4166 50.96 64.4166 50.2V39.64C64.4166 37.88 63.8366 36.62 62.6766 35.86C61.5566 35.06 59.9566 34.66 57.8766 34.66C56.0766 34.66 54.2766 35 52.4766 35.68C50.6766 36.36 49.2566 37.12 48.2166 37.96V29.26C49.1766 28.62 50.7566 28.02 52.9566 27.46C55.1966 26.9 57.7566 26.62 60.6366 26.62C61.4766 26.62 62.4766 26.7 63.6366 26.86C64.8366 26.98 66.0366 27.24 67.2366 27.64C68.4766 28.04 69.6166 28.64 70.6566 29.44C71.7366 30.24 72.5966 31.28 73.2366 32.56C73.8766 33.84 74.1966 35.46 74.1966 37.42L74.1366 51.7C74.1366 53.34 73.5566 54.7 72.3966 55.78C71.2766 56.86 69.6166 57.64 67.4166 58.12C65.2166 58.64 62.4966 58.9 59.2566 58.9ZM53.7366 23.8H49.2966C49.2166 22.24 49.4766 20.8 50.0766 19.48C50.6766 18.12 51.5366 17.04 52.6566 16.24C53.7766 15.4 55.0766 14.98 56.5566 14.98C57.5966 14.98 58.5366 15.18 59.3766 15.58C60.2166 15.98 60.9766 16.44 61.6566 16.96C62.3766 17.44 63.0766 17.88 63.7566 18.28C64.4366 18.68 65.1366 18.88 65.8566 18.88C66.5766 18.88 67.1166 18.6 67.4766 18.04C67.8366 17.44 68.0166 16.5 68.0166 15.22H72.5766C72.6166 17.06 72.2966 18.64 71.6166 19.96C70.9766 21.24 70.1166 22.22 69.0366 22.9C67.9566 23.58 66.7766 23.92 65.4966 23.92C64.1366 23.92 62.9966 23.72 62.0766 23.32C61.1566 22.92 60.3566 22.48 59.6766 22C59.0366 21.48 58.4366 21.02 57.8766 20.62C57.3566 20.22 56.7766 20.02 56.1366 20.02C55.2166 20.02 54.5766 20.44 54.2166 21.28C53.8566 22.12 53.6966 22.96 53.7366 23.8ZM95.7483 58.9C90.5083 58.9 86.5683 57.54 83.9283 54.82C81.3283 52.1 80.0283 48.04 80.0283 42.64C80.0283 36.76 81.3483 32.6 83.9883 30.16C86.6283 27.68 90.5483 26.44 95.7483 26.44C99.1883 26.44 102.088 27 104.448 28.12C106.808 29.2 108.588 30.94 109.788 33.34C111.028 35.7 111.648 38.8 111.648 42.64C111.648 48 110.268 52.06 107.508 54.82C104.788 57.54 100.868 58.9 95.7483 58.9ZM95.7483 51.04C97.0283 51.04 98.1083 50.74 98.9883 50.14C99.9083 49.54 100.608 48.62 101.088 47.38C101.568 46.1 101.808 44.52 101.808 42.64C101.808 40.4 101.568 38.68 101.088 37.48C100.608 36.24 99.9083 35.38 98.9883 34.9C98.1083 34.42 97.0283 34.18 95.7483 34.18C94.4283 34.18 93.3283 34.44 92.4483 34.96C91.5683 35.44 90.9083 36.3 90.4683 37.54C90.0683 38.74 89.8683 40.44 89.8683 42.64C89.8683 45.56 90.3483 47.7 91.3083 49.06C92.2683 50.38 93.7483 51.04 95.7483 51.04ZM148.74 58.9C146.18 58.9 143.88 58.62 141.84 58.06C139.8 57.54 138.04 56.66 136.56 55.42C135.12 54.18 134 52.52 133.2 50.44C132.44 48.32 132.06 45.68 132.06 42.52C132.06 37.56 133.28 33.64 135.72 30.76C138.16 27.88 141.84 26.44 146.76 26.44C147.32 26.44 148.1 26.5 149.1 26.62C150.1 26.7 151.16 26.94 152.28 27.34C153.4 27.74 154.42 28.46 155.34 29.5L153.48 32.62V15.1H163.26V49.54C163.26 51.06 162.86 52.42 162.06 53.62C161.3 54.78 160.24 55.76 158.88 56.56C157.52 57.32 155.96 57.9 154.2 58.3C152.48 58.7 150.66 58.9 148.74 58.9ZM149.16 50.68C150.48 50.68 151.52 50.5 152.28 50.14C153.08 49.78 153.48 49.22 153.48 48.46V35.5C152.84 35.14 152.16 34.88 151.44 34.72C150.76 34.52 150.1 34.42 149.46 34.42C147.86 34.42 146.5 34.66 145.38 35.14C144.26 35.62 143.42 36.48 142.86 37.72C142.3 38.92 142.02 40.64 142.02 42.88C142.02 44.56 142.26 45.98 142.74 47.14C143.22 48.3 143.98 49.18 145.02 49.78C146.1 50.38 147.48 50.68 149.16 50.68ZM184.871 58.9C181.751 58.9 178.991 58.28 176.591 57.04C174.231 55.76 172.391 53.96 171.071 51.64C169.751 49.28 169.091 46.5 169.091 43.3C169.091 37.98 170.431 33.84 173.111 30.88C175.791 27.92 179.651 26.44 184.691 26.44C188.051 26.44 190.771 27.16 192.851 28.6C194.931 30.04 196.471 32.18 197.471 35.02C198.471 37.86 198.951 41.34 198.911 45.46H175.991L174.791 39.4H190.511L189.311 42.64C189.271 39.4 188.851 37.14 188.051 35.86C187.291 34.54 186.011 33.88 184.211 33.88C183.251 33.88 182.371 34.16 181.571 34.72C180.771 35.24 180.131 36.1 179.651 37.3C179.211 38.5 178.991 40.12 178.991 42.16C178.991 44.92 179.631 47.04 180.911 48.52C182.231 49.96 184.391 50.68 187.391 50.68C188.471 50.68 189.551 50.56 190.631 50.32C191.711 50.04 192.711 49.72 193.631 49.36C194.551 49 195.331 48.72 195.971 48.52V56.92C194.571 57.44 192.971 57.9 191.171 58.3C189.411 58.7 187.311 58.9 184.871 58.9ZM233.737 37.36V58H223.777V39.64C223.777 38.84 223.677 38.14 223.477 37.54C223.277 36.9 222.957 36.38 222.517 35.98C222.077 35.58 221.517 35.28 220.837 35.08C220.157 34.88 219.337 34.78 218.377 34.78C217.537 34.78 216.777 34.9 216.097 35.14C215.457 35.34 214.977 35.56 214.657 35.8V58H204.757V30.16C205.477 29.76 206.477 29.36 207.757 28.96C209.037 28.56 210.457 28.2 212.017 27.88C213.577 27.52 215.157 27.24 216.757 27.04C218.357 26.8 219.817 26.68 221.137 26.68C223.817 26.68 226.097 27 227.977 27.64C229.857 28.28 231.277 29.38 232.237 30.94C233.237 32.5 233.737 34.64 233.737 37.36ZM223.777 32.38C225.017 31.26 226.557 30.28 228.397 29.44C230.237 28.6 232.177 27.94 234.217 27.46C236.297 26.94 238.217 26.68 239.977 26.68C242.657 26.68 244.937 27 246.817 27.64C248.697 28.28 250.117 29.38 251.077 30.94C252.077 32.5 252.577 34.64 252.577 37.36V58H242.617V39.64C242.617 38.84 242.517 38.14 242.317 37.54C242.117 36.9 241.797 36.38 241.357 35.98C240.917 35.58 240.357 35.28 239.677 35.08C238.997 34.88 238.177 34.78 237.217 34.78C236.377 34.78 235.617 34.9 234.937 35.14C234.297 35.38 233.817 35.66 233.497 35.98L223.777 32.38ZM274.108 58.9C268.868 58.9 264.928 57.54 262.288 54.82C259.688 52.1 258.388 48.04 258.388 42.64C258.388 36.76 259.708 32.6 262.348 30.16C264.988 27.68 268.908 26.44 274.108 26.44C277.548 26.44 280.448 27 282.808 28.12C285.168 29.2 286.948 30.94 288.148 33.34C289.388 35.7 290.008 38.8 290.008 42.64C290.008 48 288.628 52.06 285.868 54.82C283.148 57.54 279.228 58.9 274.108 58.9ZM274.108 51.04C275.388 51.04 276.468 50.74 277.348 50.14C278.268 49.54 278.968 48.62 279.448 47.38C279.928 46.1 280.168 44.52 280.168 42.64C280.168 40.4 279.928 38.68 279.448 37.48C278.968 36.24 278.268 35.38 277.348 34.9C276.468 34.42 275.388 34.18 274.108 34.18C272.788 34.18 271.688 34.44 270.808 34.96C269.928 35.44 269.268 36.3 268.828 37.54C268.428 38.74 268.228 40.44 268.228 42.64C268.228 45.56 268.708 47.7 269.668 49.06C270.628 50.38 272.108 51.04 274.108 51.04ZM295.753 58V30.94C296.353 30.38 297.373 29.78 298.813 29.14C300.253 28.46 301.893 27.88 303.733 27.4C305.613 26.88 307.453 26.62 309.253 26.62C311.453 26.62 313.173 26.78 314.413 27.1C315.653 27.42 316.593 27.82 317.233 28.3V35.44C316.593 35.28 315.753 35.14 314.713 35.02C313.673 34.9 312.573 34.82 311.413 34.78C310.253 34.74 309.153 34.74 308.113 34.78C307.113 34.82 306.293 34.88 305.653 34.96V58H295.753ZM334.12 58.9C332.16 58.9 330.34 58.72 328.66 58.36C327.02 58.04 325.58 57.48 324.34 56.68C323.1 55.88 322.14 54.78 321.46 53.38C320.78 51.98 320.44 50.28 320.44 48.28C320.44 46.48 320.8 44.9 321.52 43.54C322.28 42.18 323.46 41.1 325.06 40.3C326.66 39.5 328.7 39.1 331.18 39.1C332.5 39.1 333.8 39.26 335.08 39.58C336.36 39.86 337.52 40.26 338.56 40.78C339.6 41.26 340.4 41.8 340.96 42.4L341.26 46.84C340.46 46.4 339.56 46.06 338.56 45.82C337.56 45.54 336.52 45.4 335.44 45.4C333.6 45.4 332.26 45.66 331.42 46.18C330.62 46.66 330.22 47.48 330.22 48.64C330.22 49.24 330.4 49.8 330.76 50.32C331.16 50.84 331.66 51.26 332.26 51.58C332.9 51.9 333.58 52.06 334.3 52.06C336.22 52.06 337.52 51.94 338.2 51.7C338.92 51.46 339.28 50.96 339.28 50.2V39.64C339.28 37.88 338.7 36.62 337.54 35.86C336.42 35.06 334.82 34.66 332.74 34.66C330.94 34.66 329.14 35 327.34 35.68C325.54 36.36 324.12 37.12 323.08 37.96V29.26C324.04 28.62 325.62 28.02 327.82 27.46C330.06 26.9 332.62 26.62 335.5 26.62C336.34 26.62 337.34 26.7 338.5 26.86C339.7 26.98 340.9 27.24 342.1 27.64C343.34 28.04 344.48 28.64 345.52 29.44C346.6 30.24 347.46 31.28 348.1 32.56C348.74 33.84 349.06 35.46 349.06 37.42L349 51.7C349 53.34 348.42 54.7 347.26 55.78C346.14 56.86 344.48 57.64 342.28 58.12C340.08 58.64 337.36 58.9 334.12 58.9Z" fill="white"/>
</svg>
