<svg width="15" height="14" viewBox="0 0 15 14" fill="none" xmlns="http://www.w3.org/2000/svg">
<path d="M7.0303 14C5.16575 14 3.37757 13.2625 2.05913 11.9497C0.74069 10.637 0 8.85652 0 7C0 5.14348 0.74069 3.36301 2.05913 2.05025C3.37757 0.737498 5.16575 0 7.0303 0C8.89486 0 10.683 0.737498 12.0015 2.05025C13.3199 3.36301 14.0606 5.14348 14.0606 7C14.0606 8.85652 13.3199 10.637 12.0015 11.9497C10.683 13.2625 8.89486 14 7.0303 14ZM7.25176 2.6845C7.20199 2.65328 7.14616 2.63286 7.08792 2.62458C7.02969 2.6163 6.97035 2.62034 6.91379 2.63645C6.85723 2.65255 6.80472 2.68035 6.75968 2.71803C6.71465 2.75571 6.6781 2.80242 6.65242 2.85512L5.59788 4.98313L3.23921 5.32438C3.16126 5.33505 3.0879 5.36736 3.02752 5.41761C2.96714 5.46786 2.92219 5.53401 2.8978 5.6085C2.87342 5.68299 2.87058 5.76281 2.88962 5.83883C2.90865 5.91485 2.9488 5.984 3.00545 6.03837L4.71382 7.69388L4.30958 10.0336C4.2966 10.1105 4.30543 10.1895 4.33507 10.2617C4.36471 10.3339 4.41398 10.3964 4.47735 10.4422C4.54071 10.488 4.61566 10.5153 4.69377 10.521C4.77187 10.5268 4.85003 10.5107 4.91945 10.4746L7.0303 9.37037L9.13939 10.4738C9.20879 10.5102 9.28705 10.5265 9.3653 10.521C9.44355 10.5154 9.51867 10.4881 9.58215 10.4422C9.64563 10.3963 9.69493 10.3336 9.72446 10.2613C9.754 10.1889 9.7626 10.1097 9.74927 10.0327L9.34679 7.69388L11.0534 6.0375C11.1091 5.98287 11.1484 5.91387 11.167 5.83823C11.1855 5.76259 11.1825 5.6833 11.1584 5.60926C11.1342 5.53521 11.0898 5.46934 11.0301 5.41902C10.9704 5.3687 10.8978 5.33593 10.8205 5.32438L8.46097 4.98313L7.40642 2.85512C7.3722 2.78477 7.31855 2.72558 7.25176 2.6845Z" fill="#2B3137" fill-opacity="0.2"/>
</svg>
