<svg width="140" height="140" viewBox="0 0 140 140" fill="none" xmlns="http://www.w3.org/2000/svg">
<rect width="140" height="140" rx="10" fill="#FAFBFC"/>
<path fill-rule="evenodd" clip-rule="evenodd" d="M69.5 121C82.8934 121 95.7383 115.679 105.209 106.209C114.679 96.7383 120 83.8934 120 70.5C120 57.1066 114.679 44.2617 105.209 34.7911C95.7383 25.3205 82.8934 20 69.5 20C56.1066 20 43.2617 25.3205 33.7911 34.7911C24.3205 44.2617 19 57.1066 19 70.5C19 83.8934 24.3205 96.7383 33.7911 106.209C43.2617 115.679 56.1066 121 69.5 121ZM50.1017 51.4994C48.3047 54.2095 47.4062 56.8818 47.4062 59.5163C47.4062 60.7998 47.9744 61.9908 49.1106 63.0891C50.2469 64.1875 51.6377 64.7346 53.2832 64.7304C56.0817 64.7304 57.9818 63.1607 58.9834 60.0213C60.0439 57.0207 61.34 54.7482 62.8719 53.2038C64.4037 51.6635 66.7898 50.8934 70.0302 50.8934C72.7993 50.8934 75.0613 51.6572 76.8162 53.1848C78.5669 54.7166 79.4422 56.5936 79.4422 58.8156C79.4498 59.9303 79.153 61.026 78.5837 61.9844C77.9988 62.9574 77.2854 63.8471 76.4627 64.6294C75.1354 65.8449 73.7712 67.0196 72.3722 68.1517C70.2259 69.9319 68.5174 71.4679 67.2464 72.7599C65.9839 74.056 64.9676 75.5563 64.1975 77.2607C62.1649 85.1198 72.7194 85.751 75.156 80.1392C75.4506 79.6005 75.8988 79.0029 76.5006 78.3464C77.1066 77.6941 77.9104 76.9366 78.9119 76.0739C81.466 73.9468 83.9788 71.7707 86.4491 69.5468C87.8462 68.2591 89.0519 66.723 90.0661 64.9387C91.1138 63.039 91.6408 60.8961 91.5938 58.7272C91.5938 55.7309 90.7016 52.9534 88.9173 50.3947C87.1371 47.8318 84.6121 45.8076 81.3423 44.3221C78.0724 42.8365 74.3017 42.0938 70.0302 42.0938C65.4347 42.0938 61.4137 42.9838 57.9671 44.7639C54.5204 46.5441 51.8986 48.7934 50.1017 51.4994ZM63.6104 96.1919C63.6104 97.8661 64.2755 99.4717 65.4593 100.655C66.6432 101.839 68.2488 102.504 69.9229 102.504C71.5971 102.504 73.2027 101.839 74.3866 100.655C75.5704 99.4717 76.2354 97.8661 76.2354 96.1919C76.2354 94.5177 75.5704 92.9121 74.3866 91.7283C73.2027 90.5444 71.5971 89.8794 69.9229 89.8794C68.2488 89.8794 66.6432 90.5444 65.4593 91.7283C64.2755 92.9121 63.6104 94.5177 63.6104 96.1919Z" fill="#F6821F"/>
</svg>
