<svg width="466" height="371" viewBox="0 0 466 371" fill="none" xmlns="http://www.w3.org/2000/svg">
<path d="M213.654 104.384L146.578 37.3081C135.803 26.5325 118.332 26.5325 107.556 37.3081L107.339 37.5259C96.563 48.3014 96.563 65.7721 107.339 76.5477L174.414 143.623C185.19 154.399 202.66 154.399 213.436 143.623L213.654 143.406C224.429 132.63 224.429 115.159 213.654 104.384Z" fill="#FCB827"/>
<path d="M174.437 104.384L241.513 37.3081C252.288 26.5325 269.759 26.5325 280.534 37.3081L280.752 37.5259C291.528 48.3014 291.528 65.7721 280.752 76.5477L213.677 143.623C202.901 154.399 185.43 154.399 174.655 143.623L174.437 143.405C163.662 132.63 163.662 115.159 174.437 104.384Z" fill="#F6821F"/>
<path d="M125.63 29.1102H125.354C110.115 29.1102 97.7614 41.4638 97.7614 56.7028V241.573C97.7614 256.812 110.115 269.166 125.354 269.166H125.63C140.869 269.166 153.222 256.812 153.222 241.573V56.7028C153.222 41.4638 140.869 29.1102 125.63 29.1102Z" fill="#F6821F"/>
<path d="M233.793 216.602H374.515V241.501C374.515 256.779 359.998 269.166 342.091 269.166H233.793V216.602Z" fill="#24292E"/>
<path d="M233.793 146.661C233.793 131.343 248.31 118.924 266.217 118.924H343.55C360.651 118.924 374.515 130.784 374.515 145.413C374.515 160.042 360.651 171.902 343.55 171.902H233.793V146.661Z" fill="#2B3137"/>
<path d="M233.793 56.6306C233.793 41.4316 248.31 29.1102 266.217 29.1102H343.55C360.651 29.1102 374.515 40.8771 374.515 55.3921C374.515 69.9072 360.651 81.6741 343.55 81.6741H233.793V56.6306Z" fill="#24292E"/>
<path d="M233.517 56.7028C233.517 41.464 245.871 29.1102 261.11 29.1102H288.978V241.573C288.978 256.812 276.625 269.166 261.385 269.166H233.517V56.7028Z" fill="#FCB827"/>
<path d="M6.375 354V303.975H12.225L30.75 332.4L27.075 333.225L46.65 303.975H52.5V354H47.1V309.375H49.5L28.875 338.325L9.825 309.975L11.775 307.2V354H6.375ZM74.7867 355.125C73.1367 355.125 71.4617 354.95 69.7617 354.6C68.1117 354.25 66.5617 353.65 65.1117 352.8C63.7117 351.95 62.5617 350.8 61.6617 349.35C60.8117 347.85 60.3867 345.975 60.3867 343.725C60.3867 340.625 60.9617 338.15 62.1117 336.3C63.3117 334.4 64.9367 333.05 66.9867 332.25C69.0867 331.4 71.4867 330.975 74.1867 330.975C76.2367 330.975 78.0117 331.1 79.5117 331.35C81.0117 331.6 82.3367 331.975 83.4867 332.475C84.6867 332.925 85.7617 333.45 86.7117 334.05L87.7617 339C86.6117 338.15 84.9367 337.425 82.7367 336.825C80.5867 336.175 78.2117 335.85 75.6117 335.85C72.4617 335.85 70.0367 336.45 68.3367 337.65C66.6367 338.85 65.7867 340.6 65.7867 342.9C65.7867 344.75 66.2867 346.225 67.2867 347.325C68.3367 348.425 69.6367 349.2 71.1867 349.65C72.7867 350.1 74.4117 350.325 76.0617 350.325C79.3117 350.325 81.7617 350.1 83.4117 349.65C85.1117 349.15 85.9617 348.05 85.9617 346.35V329.175C85.9617 326.275 85.1117 324.15 83.4117 322.8C81.7117 321.45 79.2867 320.775 76.1367 320.775C74.1367 320.775 72.0117 321.075 69.7617 321.675C67.5617 322.225 65.6617 323.125 64.0617 324.375V318.975C65.6117 317.975 67.6867 317.225 70.2867 316.725C72.8867 316.175 75.4117 315.9 77.8617 315.9C79.5117 315.9 81.0367 316.075 82.4367 316.425C83.8367 316.725 85.0867 317.2 86.1867 317.85C87.2867 318.45 88.2117 319.25 88.9617 320.25C89.7617 321.2 90.3617 322.325 90.7617 323.625C91.2117 324.875 91.4367 326.3 91.4367 327.9V346.05C91.4367 348.7 90.6367 350.675 89.0367 351.975C87.4867 353.275 85.4367 354.125 82.8867 354.525C80.3867 354.925 77.6867 355.125 74.7867 355.125ZM100.415 354V319.575C101.015 319.325 102.165 318.9 103.865 318.3C105.615 317.7 107.69 317.15 110.09 316.65C112.54 316.15 115.065 315.9 117.665 315.9C118.065 315.9 118.465 315.95 118.865 316.05C119.265 316.15 119.665 316.25 120.065 316.35V321.15C118.765 321 117.49 320.925 116.24 320.925C115.04 320.925 113.865 321 112.715 321.15C111.565 321.25 110.415 321.4 109.265 321.6C108.115 321.8 106.965 322 105.815 322.2V354H100.415ZM156.362 329.625V354H150.962V329.625C150.962 328.725 150.837 327.775 150.587 326.775C150.387 325.775 149.962 324.825 149.312 323.925C148.662 322.975 147.662 322.225 146.312 321.675C144.962 321.075 143.162 320.775 140.912 320.775C139.362 320.775 137.762 320.9 136.112 321.15C134.462 321.4 132.787 321.775 131.087 322.275V354H125.687V319.575C126.887 318.975 128.112 318.45 129.362 318C130.662 317.5 131.962 317.1 133.262 316.8C134.612 316.5 135.962 316.275 137.312 316.125C138.712 315.975 140.112 315.9 141.512 315.9C145.162 315.9 148.062 316.45 150.212 317.55C152.362 318.6 153.912 320.15 154.862 322.2C155.862 324.25 156.362 326.725 156.362 329.625ZM149.237 321.075C150.887 319.825 152.562 318.825 154.262 318.075C155.962 317.325 157.712 316.775 159.512 316.425C161.362 316.075 163.212 315.9 165.062 315.9C168.712 315.9 171.612 316.45 173.762 317.55C175.912 318.6 177.462 320.15 178.412 322.2C179.412 324.25 179.912 326.725 179.912 329.625V354H174.512V329.625C174.512 328.725 174.387 327.775 174.137 326.775C173.937 325.775 173.512 324.825 172.862 323.925C172.212 322.975 171.212 322.225 169.862 321.675C168.512 321.075 166.712 320.775 164.462 320.775C162.912 320.775 161.312 321 159.662 321.45C158.012 321.9 156.337 322.675 154.637 323.775L149.237 321.075ZM189.197 354V316.575H194.597V354H189.197ZM188.897 309.9V303.975H194.897V309.9H188.897ZM215.69 354.6C213.04 354.6 210.815 353.8 209.015 352.2C207.215 350.55 206.315 348.125 206.315 344.925V321.525H199.79V316.575H206.315V306H211.715V316.575H221.39V321.525H211.715V343.2C211.715 345.3 212.04 346.875 212.69 347.925C213.34 348.975 214.665 349.5 216.665 349.5C217.565 349.5 218.44 349.425 219.29 349.275C220.14 349.075 220.84 348.85 221.39 348.6V353.7C220.69 353.95 219.79 354.15 218.69 354.3C217.64 354.5 216.64 354.6 215.69 354.6ZM228.536 354V303.975H260.111V309.075H233.936V326.325H256.961V331.575H233.936V348.9H260.111V354H228.536ZM283.74 337.65L271.44 354H265.365L280.515 333.6L283.74 337.65ZM300.015 354H293.115L265.74 316.575H272.565L300.015 354ZM281.265 333.075L293.64 316.575H299.865L284.265 337.65L281.265 333.075ZM320.357 355.05C319.257 355.05 318.007 354.9 316.607 354.6C315.257 354.3 313.932 353.925 312.632 353.475C311.332 353.025 310.182 352.55 309.182 352.05L311.057 350.175V370.275H305.657V323.325C305.657 321.775 306.132 320.525 307.082 319.575C308.082 318.625 309.357 317.9 310.907 317.4C312.457 316.85 314.107 316.475 315.857 316.275C317.607 316.025 319.257 315.9 320.807 315.9C323.807 315.9 326.632 316.525 329.282 317.775C331.932 319.025 334.082 321.15 335.732 324.15C337.382 327.1 338.207 331.125 338.207 336.225C338.207 340.075 337.507 343.425 336.107 346.275C334.757 349.075 332.757 351.25 330.107 352.8C327.457 354.3 324.207 355.05 320.357 355.05ZM320.357 350.1C323.107 350.1 325.357 349.525 327.107 348.375C328.907 347.175 330.257 345.525 331.157 343.425C332.057 341.325 332.507 338.925 332.507 336.225C332.507 333.525 332.207 331 331.607 328.65C331.007 326.3 329.857 324.425 328.157 323.025C326.457 321.575 323.982 320.85 320.732 320.85C318.132 320.85 315.857 321.15 313.907 321.75C312.007 322.35 311.057 323.2 311.057 324.3V347.475C312.607 348.375 314.157 349.05 315.707 349.5C317.257 349.9 318.807 350.1 320.357 350.1ZM345.357 354V319.575C345.957 319.325 347.107 318.9 348.807 318.3C350.557 317.7 352.632 317.15 355.032 316.65C357.482 316.15 360.007 315.9 362.607 315.9C363.007 315.9 363.407 315.95 363.807 316.05C364.207 316.15 364.607 316.25 365.007 316.35V321.15C363.707 321 362.432 320.925 361.182 320.925C359.982 320.925 358.807 321 357.657 321.15C356.507 321.25 355.357 321.4 354.207 321.6C353.057 321.8 351.907 322 350.757 322.2V354H345.357ZM383.442 355.125C379.892 355.125 376.817 354.4 374.217 352.95C371.617 351.45 369.617 349.225 368.217 346.275C366.817 343.325 366.117 339.65 366.117 335.25C366.117 328.8 367.567 323.975 370.467 320.775C373.417 317.525 377.442 315.9 382.542 315.9C386.542 315.9 389.742 316.8 392.142 318.6C394.592 320.4 396.342 322.825 397.392 325.875C398.442 328.925 398.942 332.375 398.892 336.225H368.817L369.192 331.275H395.367L393.267 332.025C393.117 328.275 392.167 325.475 390.417 323.625C388.717 321.775 386.092 320.85 382.542 320.85C380.092 320.85 378.042 321.3 376.392 322.2C374.792 323.1 373.592 324.675 372.792 326.925C371.992 329.125 371.592 332.225 371.592 336.225C371.592 340.775 372.642 344.25 374.742 346.65C376.892 349 379.892 350.175 383.742 350.175C385.592 350.175 387.292 350.05 388.842 349.8C390.392 349.5 391.817 349.1 393.117 348.6C394.417 348.1 395.567 347.55 396.567 346.95V352.5C394.767 353.35 392.767 354 390.567 354.45C388.417 354.9 386.042 355.125 383.442 355.125ZM416.583 355.125C413.883 355.125 411.608 354.85 409.758 354.3C407.958 353.75 406.083 352.975 404.133 351.975V346.275C405.683 347.125 407.058 347.85 408.258 348.45C409.458 349.05 410.683 349.5 411.933 349.8C413.183 350.05 414.608 350.175 416.208 350.175C418.708 350.175 420.733 349.625 422.283 348.525C423.883 347.425 424.683 346 424.683 344.25C424.683 342.85 424.283 341.775 423.483 341.025C422.733 340.275 421.758 339.65 420.558 339.15C419.358 338.65 418.108 338.125 416.808 337.575C415.358 337.175 413.883 336.75 412.383 336.3C410.933 335.8 409.583 335.175 408.333 334.425C407.133 333.625 406.158 332.625 405.408 331.425C404.658 330.175 404.283 328.575 404.283 326.625C404.283 324.725 404.658 323.1 405.408 321.75C406.208 320.4 407.233 319.3 408.483 318.45C409.733 317.55 411.133 316.9 412.683 316.5C414.233 316.1 415.783 315.9 417.333 315.9C419.583 315.9 421.508 316.2 423.108 316.8C424.708 317.4 426.358 318.075 428.058 318.825V324.225C426.158 323.225 424.458 322.425 422.958 321.825C421.458 321.175 419.683 320.85 417.633 320.85C415.583 320.85 413.733 321.275 412.083 322.125C410.483 322.925 409.683 324.175 409.683 325.875C409.683 327.275 410.083 328.4 410.883 329.25C411.733 330.05 412.833 330.7 414.183 331.2C415.533 331.65 416.983 332.1 418.533 332.55C419.783 332.95 421.083 333.4 422.433 333.9C423.783 334.35 425.033 334.975 426.183 335.775C427.333 336.525 428.258 337.525 428.958 338.775C429.708 340.025 430.083 341.625 430.083 343.575C430.083 346.225 429.408 348.425 428.058 350.175C426.708 351.875 424.983 353.125 422.883 353.925C420.833 354.725 418.733 355.125 416.583 355.125ZM447.787 355.125C445.087 355.125 442.812 354.85 440.962 354.3C439.162 353.75 437.287 352.975 435.337 351.975V346.275C436.887 347.125 438.262 347.85 439.462 348.45C440.662 349.05 441.887 349.5 443.137 349.8C444.387 350.05 445.812 350.175 447.412 350.175C449.912 350.175 451.937 349.625 453.487 348.525C455.087 347.425 455.887 346 455.887 344.25C455.887 342.85 455.487 341.775 454.687 341.025C453.937 340.275 452.962 339.65 451.762 339.15C450.562 338.65 449.312 338.125 448.012 337.575C446.562 337.175 445.087 336.75 443.587 336.3C442.137 335.8 440.787 335.175 439.537 334.425C438.337 333.625 437.362 332.625 436.612 331.425C435.862 330.175 435.487 328.575 435.487 326.625C435.487 324.725 435.862 323.1 436.612 321.75C437.412 320.4 438.437 319.3 439.687 318.45C440.937 317.55 442.337 316.9 443.887 316.5C445.437 316.1 446.987 315.9 448.537 315.9C450.787 315.9 452.712 316.2 454.312 316.8C455.912 317.4 457.562 318.075 459.262 318.825V324.225C457.362 323.225 455.662 322.425 454.162 321.825C452.662 321.175 450.887 320.85 448.837 320.85C446.787 320.85 444.937 321.275 443.287 322.125C441.687 322.925 440.887 324.175 440.887 325.875C440.887 327.275 441.287 328.4 442.087 329.25C442.937 330.05 444.037 330.7 445.387 331.2C446.737 331.65 448.187 332.1 449.737 332.55C450.987 332.95 452.287 333.4 453.637 333.9C454.987 334.35 456.237 334.975 457.387 335.775C458.537 336.525 459.462 337.525 460.162 338.775C460.912 340.025 461.287 341.625 461.287 343.575C461.287 346.225 460.612 348.425 459.262 350.175C457.912 351.875 456.187 353.125 454.087 353.925C452.037 354.725 449.937 355.125 447.787 355.125Z" fill="#24292E"/>
</svg>
