<svg width="50" height="50" viewBox="0 0 50 50" fill="none" xmlns="http://www.w3.org/2000/svg">
<rect width="50" height="50" rx="10" fill="#FAFBFC"/>
<path d="M22.3948 19.7785L14.575 11.9287C13.3188 10.6676 11.282 10.6676 10.0258 11.9287L10.0004 11.9542C8.74418 13.2152 8.74418 15.2598 10.0004 16.5209L17.8202 24.3708C19.0764 25.6318 21.1132 25.6318 22.3694 24.3708L22.3948 24.3453C23.6511 23.0842 23.6511 21.0396 22.3948 19.7785Z" fill="#FCB827"/>
<path d="M17.8229 19.7785L25.6427 11.9287C26.8989 10.6676 28.9357 10.6676 30.1919 11.9287L30.2173 11.9542C31.4735 13.2152 31.4735 15.2598 30.2173 16.5209L22.3975 24.3707C21.1413 25.6318 19.1045 25.6318 17.8483 24.3707L17.8229 24.3453C16.5667 23.0842 16.5667 21.0396 17.8229 19.7785Z" fill="#F6821F"/>
<path d="M12.1328 10.9693H12.1006C10.3241 10.9693 8.88385 12.415 8.88385 14.1984V35.8338C8.88385 37.6173 10.3241 39.063 12.1006 39.063H12.1328C13.9094 39.063 15.3496 37.6173 15.3496 35.8338V14.1984C15.3496 12.415 13.9094 10.9693 12.1328 10.9693Z" fill="#F6821F"/>
<path d="M24.7427 32.9115H41.1483V35.8254C41.1483 37.6135 39.4559 39.063 37.3682 39.063H24.7427V32.9115Z" fill="#24292E"/>
<path d="M24.7427 24.7263C24.7427 22.9335 26.4351 21.4802 28.5228 21.4802H37.5383C39.5321 21.4802 41.1483 22.8681 41.1483 24.5802C41.1483 26.2923 39.5321 27.6802 37.5383 27.6802H24.7427V24.7263Z" fill="#2B3137"/>
<path d="M24.7427 14.19C24.7427 12.4112 26.4351 10.9693 28.5228 10.9693H37.5383C39.5321 10.9693 41.1483 12.3463 41.1483 14.045C41.1483 15.7437 39.5321 17.1208 37.5383 17.1208H24.7427V14.19Z" fill="#24292E"/>
<path d="M24.7105 14.1984C24.7105 12.415 26.1507 10.9693 27.9273 10.9693H31.1763V35.8338C31.1763 37.6173 29.7361 39.063 27.9595 39.063H24.7105V14.1984Z" fill="#FCB827"/>
</svg>
