<svg width="546" height="546" viewBox="0 0 546 546" fill="none" xmlns="http://www.w3.org/2000/svg">
<g filter="url(#filter0_d_429_1806)">
<circle cx="273" cy="269" r="223" fill="#FAFBFC"/>
</g>
<path d="M258.094 192.655L208.147 142.755C200.124 134.739 187.114 134.739 179.09 142.755L178.928 142.917C170.904 150.933 170.904 163.93 178.928 171.947L228.875 221.846C236.899 229.863 249.908 229.863 257.932 221.846L258.094 221.685C266.118 213.668 266.118 200.671 258.094 192.655Z" fill="#FCB827"/>
<path d="M228.892 192.655L278.839 142.755C286.863 134.739 299.872 134.739 307.896 142.755L308.058 142.917C316.082 150.933 316.082 163.93 308.058 171.947L258.111 221.846C250.087 229.863 237.078 229.863 229.054 221.846L228.892 221.684C220.869 213.668 220.869 200.671 228.892 192.655Z" fill="#F6821F"/>
<path d="M192.549 136.656H192.343C180.996 136.656 171.797 145.847 171.797 157.183V294.715C171.797 306.052 180.996 315.242 192.343 315.242H192.549C203.896 315.242 213.095 306.052 213.095 294.715V157.183C213.095 145.847 203.896 136.656 192.549 136.656Z" fill="#F6821F"/>
<path d="M273.09 276.138H377.877V294.661C377.877 306.027 367.067 315.242 353.733 315.242H273.09V276.138Z" fill="#24292E"/>
<path d="M273.09 224.106C273.09 212.711 283.9 203.472 297.235 203.472H354.819C367.553 203.472 377.877 212.295 377.877 223.178C377.877 234.061 367.553 242.884 354.819 242.884H273.09V224.106Z" fill="#2B3137"/>
<path d="M273.09 157.13C273.09 145.823 283.9 136.656 297.235 136.656H354.819C367.553 136.656 377.877 145.41 377.877 156.208C377.877 167.007 367.553 175.76 354.819 175.76H273.09V157.13Z" fill="#24292E"/>
<path d="M272.885 157.183C272.885 145.847 282.084 136.656 293.432 136.656H314.183V294.715C314.183 306.052 304.985 315.242 293.637 315.242H272.885V157.183Z" fill="#FCB827"/>
<path d="M103.747 378.353V341.138H108.103L121.898 362.284L119.161 362.898L133.737 341.138H138.093V378.353H134.072V345.155H135.859L120.501 366.692L106.316 345.601L107.768 343.537V378.353H103.747ZM154.689 379.19C153.46 379.19 152.213 379.06 150.947 378.799C149.718 378.539 148.564 378.093 147.484 377.46C146.442 376.828 145.586 375.972 144.915 374.894C144.283 373.778 143.966 372.383 143.966 370.709C143.966 368.403 144.394 366.562 145.251 365.185C146.144 363.772 147.354 362.768 148.881 362.172C150.444 361.54 152.232 361.224 154.242 361.224C155.769 361.224 157.09 361.317 158.207 361.503C159.324 361.689 160.311 361.968 161.167 362.34C162.061 362.675 162.861 363.065 163.569 363.512L164.35 367.194C163.494 366.562 162.247 366.022 160.609 365.576C159.008 365.092 157.239 364.851 155.303 364.851C152.958 364.851 151.152 365.297 149.886 366.19C148.62 367.082 147.987 368.384 147.987 370.095C147.987 371.472 148.359 372.569 149.104 373.387C149.886 374.206 150.854 374.782 152.008 375.117C153.2 375.452 154.41 375.619 155.638 375.619C158.058 375.619 159.883 375.452 161.111 375.117C162.377 374.745 163.01 373.927 163.01 372.662V359.885C163.01 357.727 162.377 356.147 161.111 355.142C159.845 354.138 158.04 353.636 155.694 353.636C154.205 353.636 152.622 353.859 150.947 354.305C149.309 354.715 147.894 355.384 146.703 356.314V352.297C147.857 351.553 149.402 350.995 151.338 350.623C153.274 350.214 155.154 350.009 156.979 350.009C158.207 350.009 159.343 350.139 160.385 350.4C161.428 350.623 162.359 350.976 163.178 351.46C163.997 351.906 164.686 352.501 165.244 353.245C165.84 353.952 166.287 354.789 166.584 355.756C166.919 356.686 167.087 357.746 167.087 358.936V372.439C167.087 374.41 166.491 375.879 165.3 376.847C164.146 377.814 162.619 378.446 160.72 378.744C158.859 379.041 156.848 379.19 154.689 379.19ZM173.773 378.353V352.743C174.219 352.557 175.076 352.241 176.342 351.795C177.645 351.348 179.19 350.939 180.977 350.567C182.801 350.195 184.681 350.009 186.618 350.009C186.915 350.009 187.213 350.046 187.511 350.121C187.809 350.195 188.107 350.27 188.405 350.344V353.915C187.437 353.803 186.487 353.747 185.556 353.747C184.663 353.747 183.788 353.803 182.932 353.915C182.075 353.989 181.219 354.101 180.363 354.25C179.506 354.398 178.65 354.547 177.794 354.696V378.353H173.773ZM215.433 360.22V378.353H211.412V360.22C211.412 359.55 211.319 358.843 211.132 358.099C210.983 357.355 210.667 356.649 210.183 355.979C209.699 355.272 208.954 354.715 207.949 354.305C206.944 353.859 205.603 353.636 203.928 353.636C202.774 353.636 201.582 353.729 200.354 353.915C199.125 354.101 197.878 354.38 196.612 354.752V378.353H192.591V352.743C193.485 352.297 194.397 351.906 195.328 351.571C196.296 351.199 197.264 350.902 198.232 350.679C199.237 350.455 200.242 350.288 201.247 350.177C202.29 350.065 203.332 350.009 204.375 350.009C207.093 350.009 209.252 350.418 210.853 351.237C212.454 352.018 213.608 353.171 214.316 354.696C215.06 356.221 215.433 358.062 215.433 360.22ZM210.127 353.859C211.356 352.929 212.603 352.185 213.869 351.627C215.135 351.069 216.438 350.66 217.778 350.4C219.156 350.139 220.533 350.009 221.911 350.009C224.629 350.009 226.788 350.418 228.389 351.237C229.99 352.018 231.144 353.171 231.852 354.696C232.597 356.221 232.969 358.062 232.969 360.22V378.353H228.948V360.22C228.948 359.55 228.855 358.843 228.669 358.099C228.52 357.355 228.203 356.649 227.719 355.979C227.235 355.272 226.49 354.715 225.485 354.305C224.48 353.859 223.14 353.636 221.464 353.636C220.31 353.636 219.119 353.803 217.89 354.138C216.661 354.473 215.414 355.049 214.148 355.868L210.127 353.859ZM239.883 378.353V350.511H243.904V378.353H239.883ZM239.659 345.546V341.138H244.127V345.546H239.659ZM259.61 378.799C257.637 378.799 255.98 378.204 254.64 377.014C253.3 375.786 252.629 373.982 252.629 371.602V354.194H247.771V350.511H252.629V342.644H256.65V350.511H263.855V354.194H256.65V370.319C256.65 371.881 256.892 373.053 257.376 373.834C257.86 374.615 258.847 375.005 260.336 375.005C261.007 375.005 261.658 374.95 262.291 374.838C262.924 374.689 263.445 374.522 263.855 374.336V378.13C263.334 378.316 262.663 378.465 261.844 378.576C261.062 378.725 260.318 378.799 259.61 378.799ZM269.176 378.353V341.138H292.688V344.932H273.197V357.765H290.342V361.67H273.197V374.559H292.688V378.353H269.176ZM310.283 366.19L301.124 378.353H296.6L307.881 363.177L310.283 366.19ZM322.402 378.353H317.264L296.879 350.511H301.962L322.402 378.353ZM308.44 362.786L317.655 350.511H322.29L310.674 366.19L308.44 362.786ZM337.549 379.134C336.73 379.134 335.799 379.023 334.757 378.799C333.751 378.576 332.765 378.297 331.797 377.962C330.829 377.628 329.972 377.274 329.228 376.902L330.624 375.507V390.461H326.603V355.533C326.603 354.38 326.957 353.45 327.664 352.743C328.409 352.036 329.358 351.497 330.512 351.125C331.667 350.716 332.895 350.437 334.198 350.288C335.501 350.102 336.73 350.009 337.884 350.009C340.118 350.009 342.222 350.474 344.195 351.404C346.168 352.334 347.769 353.915 348.998 356.147C350.227 358.341 350.841 361.336 350.841 365.13C350.841 367.994 350.32 370.486 349.277 372.606C348.272 374.689 346.783 376.307 344.809 377.46C342.836 378.576 340.416 379.134 337.549 379.134ZM337.549 375.452C339.597 375.452 341.272 375.024 342.575 374.168C343.916 373.276 344.921 372.048 345.591 370.486C346.261 368.924 346.596 367.138 346.596 365.13C346.596 363.121 346.373 361.243 345.926 359.494C345.479 357.746 344.623 356.351 343.357 355.31C342.091 354.231 340.248 353.692 337.828 353.692C335.892 353.692 334.198 353.915 332.746 354.361C331.331 354.808 330.624 355.44 330.624 356.258V373.499C331.778 374.168 332.932 374.671 334.087 375.005C335.241 375.303 336.395 375.452 337.549 375.452ZM356.165 378.353V352.743C356.612 352.557 357.468 352.241 358.734 351.795C360.037 351.348 361.582 350.939 363.369 350.567C365.194 350.195 367.074 350.009 369.01 350.009C369.308 350.009 369.606 350.046 369.904 350.121C370.201 350.195 370.499 350.27 370.797 350.344V353.915C369.829 353.803 368.88 353.747 367.949 353.747C367.055 353.747 366.18 353.803 365.324 353.915C364.468 353.989 363.611 354.101 362.755 354.25C361.899 354.398 361.042 354.547 360.186 354.696V378.353H356.165ZM384.524 379.19C381.881 379.19 379.591 378.651 377.655 377.572C375.719 376.456 374.23 374.801 373.187 372.606C372.145 370.412 371.624 367.678 371.624 364.404C371.624 359.606 372.703 356.016 374.863 353.636C377.059 351.218 380.057 350.009 383.854 350.009C386.833 350.009 389.216 350.679 391.003 352.018C392.827 353.357 394.13 355.161 394.912 357.43C395.694 359.699 396.066 362.265 396.029 365.13H373.634L373.913 361.447H393.404L391.84 362.005C391.729 359.215 391.021 357.132 389.718 355.756C388.452 354.38 386.498 353.692 383.854 353.692C382.03 353.692 380.503 354.026 379.275 354.696C378.083 355.365 377.19 356.537 376.594 358.211C375.998 359.848 375.7 362.154 375.7 365.13C375.7 368.515 376.482 371.1 378.046 372.885C379.647 374.633 381.881 375.507 384.748 375.507C386.125 375.507 387.391 375.415 388.545 375.229C389.7 375.005 390.761 374.708 391.729 374.336C392.697 373.964 393.553 373.555 394.298 373.108V377.237C392.957 377.869 391.468 378.353 389.83 378.688C388.229 379.023 386.46 379.19 384.524 379.19ZM409.202 379.19C407.192 379.19 405.498 378.985 404.12 378.576C402.78 378.167 401.384 377.591 399.932 376.847V372.606C401.086 373.238 402.11 373.778 403.003 374.224C403.897 374.671 404.809 375.005 405.74 375.229C406.671 375.415 407.732 375.507 408.923 375.507C410.785 375.507 412.293 375.098 413.447 374.28C414.638 373.462 415.234 372.402 415.234 371.1C415.234 370.058 414.936 369.258 414.34 368.7C413.782 368.143 413.056 367.678 412.162 367.306C411.269 366.934 410.338 366.543 409.37 366.134C408.29 365.836 407.192 365.52 406.075 365.185C404.995 364.813 403.99 364.348 403.059 363.791C402.166 363.195 401.44 362.451 400.881 361.559C400.323 360.629 400.043 359.439 400.043 357.988C400.043 356.574 400.323 355.365 400.881 354.361C401.477 353.357 402.24 352.539 403.171 351.906C404.102 351.237 405.144 350.753 406.298 350.455C407.452 350.158 408.607 350.009 409.761 350.009C411.436 350.009 412.87 350.232 414.061 350.679C415.253 351.125 416.481 351.627 417.747 352.185V356.202C416.332 355.458 415.066 354.863 413.949 354.417C412.832 353.933 411.511 353.692 409.984 353.692C408.458 353.692 407.08 354.008 405.852 354.64C404.66 355.235 404.064 356.165 404.064 357.43C404.064 358.471 404.362 359.308 404.958 359.941C405.591 360.536 406.41 361.019 407.415 361.391C408.421 361.726 409.5 362.061 410.654 362.396C411.585 362.693 412.553 363.028 413.558 363.4C414.564 363.735 415.495 364.2 416.351 364.795C417.207 365.353 417.896 366.097 418.417 367.027C418.976 367.957 419.255 369.147 419.255 370.598C419.255 372.569 418.752 374.206 417.747 375.507C416.742 376.772 415.457 377.702 413.894 378.297C412.367 378.892 410.803 379.19 409.202 379.19ZM432.438 379.19C430.427 379.19 428.733 378.985 427.356 378.576C426.015 378.167 424.619 377.591 423.167 376.847V372.606C424.321 373.238 425.345 373.778 426.239 374.224C427.132 374.671 428.045 375.005 428.975 375.229C429.906 375.415 430.967 375.507 432.159 375.507C434.02 375.507 435.528 375.098 436.682 374.28C437.874 373.462 438.47 372.402 438.47 371.1C438.47 370.058 438.172 369.258 437.576 368.7C437.017 368.143 436.291 367.678 435.398 367.306C434.504 366.934 433.574 366.543 432.606 366.134C431.526 365.836 430.427 365.52 429.311 365.185C428.231 364.813 427.226 364.348 426.295 363.791C425.401 363.195 424.675 362.451 424.117 361.559C423.558 360.629 423.279 359.439 423.279 357.988C423.279 356.574 423.558 355.365 424.117 354.361C424.712 353.357 425.476 352.539 426.406 351.906C427.337 351.237 428.38 350.753 429.534 350.455C430.688 350.158 431.842 350.009 432.996 350.009C434.672 350.009 436.105 350.232 437.297 350.679C438.488 351.125 439.717 351.627 440.983 352.185V356.202C439.568 355.458 438.302 354.863 437.185 354.417C436.068 353.933 434.746 353.692 433.22 353.692C431.693 353.692 430.316 354.008 429.087 354.64C427.896 355.235 427.3 356.165 427.3 357.43C427.3 358.471 427.598 359.308 428.194 359.941C428.826 360.536 429.646 361.019 430.651 361.391C431.656 361.726 432.736 362.061 433.89 362.396C434.821 362.693 435.789 363.028 436.794 363.4C437.799 363.735 438.73 364.2 439.586 364.795C440.443 365.353 441.132 366.097 441.653 367.027C442.211 367.957 442.491 369.147 442.491 370.598C442.491 372.569 441.988 374.206 440.983 375.507C439.977 376.772 438.693 377.702 437.129 378.297C435.603 378.892 434.039 379.19 432.438 379.19Z" fill="#24292E"/>
<defs>
<filter id="filter0_d_429_1806" x="0" y="0" width="546" height="546" filterUnits="userSpaceOnUse" color-interpolation-filters="sRGB">
<feFlood flood-opacity="0" result="BackgroundImageFix"/>
<feColorMatrix in="SourceAlpha" type="matrix" values="0 0 0 0 0 0 0 0 0 0 0 0 0 0 0 0 0 0 127 0" result="hardAlpha"/>
<feOffset dy="4"/>
<feGaussianBlur stdDeviation="25"/>
<feComposite in2="hardAlpha" operator="out"/>
<feColorMatrix type="matrix" values="0 0 0 0 0 0 0 0 0 0 0 0 0 0 0 0 0 0 0.15 0"/>
<feBlend mode="normal" in2="BackgroundImageFix" result="effect1_dropShadow_429_1806"/>
<feBlend mode="normal" in="SourceGraphic" in2="effect1_dropShadow_429_1806" result="shape"/>
</filter>
</defs>
</svg>
