<svg width="23" height="23" viewBox="0 0 23 23" fill="none" xmlns="http://www.w3.org/2000/svg">
<rect width="23" height="23" rx="11.5" fill="#F6821F"/>
<path d="M18.4001 11.1715V16.4287C18.4001 16.7772 18.2616 17.1115 18.0152 17.358C17.7687 17.6045 17.4344 17.743 17.0858 17.743H6.57153C6.22296 17.743 5.88866 17.6045 5.64219 17.358C5.39571 17.1115 5.25724 16.7772 5.25724 16.4287V11.1715C5.08296 11.1715 4.91581 11.1023 4.79257 10.9791C4.66933 10.8558 4.6001 10.6887 4.6001 10.5144V8.54295C4.6001 8.19438 4.73857 7.86009 4.98504 7.61361C5.23152 7.36714 5.56581 7.22867 5.91438 7.22867H7.99753C7.92326 7.01755 7.88548 6.79533 7.88581 6.57153C7.88581 6.04867 8.09352 5.54723 8.46323 5.17752C8.83294 4.8078 9.33439 4.6001 9.85724 4.6001C10.5144 4.6001 11.0927 4.92867 11.4541 5.41495V5.40838L11.8287 5.91438L12.2032 5.40838V5.41495C12.5647 4.92867 13.143 4.6001 13.8001 4.6001C14.323 4.6001 14.8244 4.8078 15.1941 5.17752C15.5638 5.54723 15.7715 6.04867 15.7715 6.57153C15.7719 6.79533 15.7341 7.01755 15.6598 7.22867H17.743C18.0915 7.22867 18.4258 7.36714 18.6723 7.61361C18.9188 7.86009 19.0572 8.19438 19.0572 8.54295V10.5144C19.0572 10.6887 18.988 10.8558 18.8648 10.9791C18.7415 11.1023 18.5744 11.1715 18.4001 11.1715ZM6.57153 16.4287H11.1715V11.1715H6.57153V16.4287ZM17.0858 16.4287V11.1715H12.4858V16.4287H17.0858ZM9.85724 5.91438C9.68296 5.91438 9.51581 5.98362 9.39257 6.10686C9.26933 6.23009 9.2001 6.39724 9.2001 6.57153C9.2001 6.74581 9.26933 6.91296 9.39257 7.0362C9.51581 7.15943 9.68296 7.22867 9.85724 7.22867C10.0315 7.22867 10.1987 7.15943 10.3219 7.0362C10.4451 6.91296 10.5144 6.74581 10.5144 6.57153C10.5144 6.39724 10.4451 6.23009 10.3219 6.10686C10.1987 5.98362 10.0315 5.91438 9.85724 5.91438ZM13.8001 5.91438C13.6258 5.91438 13.4587 5.98362 13.3354 6.10686C13.2122 6.23009 13.143 6.39724 13.143 6.57153C13.143 6.74581 13.2122 6.91296 13.3354 7.0362C13.4587 7.15943 13.6258 7.22867 13.8001 7.22867C13.9744 7.22867 14.1415 7.15943 14.2648 7.0362C14.388 6.91296 14.4572 6.74581 14.4572 6.57153C14.4572 6.39724 14.388 6.23009 14.2648 6.10686C14.1415 5.98362 13.9744 5.91438 13.8001 5.91438ZM5.91438 8.54295V9.85724H11.1715V8.54295H5.91438ZM12.4858 8.54295V9.85724H17.743V8.54295H12.4858Z" fill="white"/>
</svg>
