<svg width="171" height="171" viewBox="0 0 171 171" fill="none" xmlns="http://www.w3.org/2000/svg">
<rect width="171" height="171" rx="30" fill="#FAFBFC"/>
<path d="M77.844 67.3397L45.9423 35.3153C40.8173 30.1706 32.5081 30.1706 27.3831 35.3153L27.2796 35.4192C22.1546 40.5639 22.1546 48.9051 27.2796 54.0497L59.1813 86.0742C64.3063 91.2189 72.6155 91.2189 77.7405 86.0742L77.844 85.9702C82.969 80.8256 82.969 72.4844 77.844 67.3397Z" fill="#FCB827"/>
<path d="M59.1922 67.3396L91.0939 35.3153C96.2189 30.1706 104.528 30.1706 109.653 35.3153L109.757 35.4192C114.882 40.5639 114.882 48.9051 109.757 54.0497L77.855 86.0741C72.73 91.2188 64.4208 91.2188 59.2958 86.0741L59.1922 85.9702C54.0673 80.8255 54.0673 72.4843 59.1922 67.3396Z" fill="#F6821F"/>
<path d="M36.1449 31.0131H36.0106C28.5919 31.0131 22.5778 36.9311 22.5778 44.2315V132.795C22.5778 140.095 28.5919 146.013 36.0106 146.013H36.1449C43.5637 146.013 49.5778 140.095 49.5778 132.795V44.2315C49.5778 36.9311 43.5637 31.0131 36.1449 31.0131Z" fill="#F6821F"/>
<path d="M87.5778 121.013H154.578V132.855C154.578 140.122 147.666 146.013 139.14 146.013H87.5778V121.013Z" fill="#24292E"/>
<path d="M87.5778 87.6256C87.5778 80.1077 94.4896 74.0131 103.016 74.0131H139.835C147.977 74.0131 154.578 79.8334 154.578 87.0131C154.578 94.1927 147.977 100.013 139.835 100.013H87.5778V87.6256Z" fill="#2B3137"/>
<path d="M87.5778 44.1021C87.5778 36.8733 94.4896 31.0131 103.016 31.0131H139.835C147.977 31.0131 154.578 36.6095 154.578 43.5131C154.578 50.4166 147.977 56.0131 139.835 56.0131H87.5778V44.1021Z" fill="#24292E"/>
<path d="M87.5778 44.2315C87.5778 36.9312 93.3692 31.0131 100.513 31.0131H113.578V132.795C113.578 140.095 107.787 146.013 100.642 146.013H87.5778V44.2315Z" fill="#FCB827"/>
</svg>
