<svg width="720" height="720" viewBox="0 0 720 720" fill="none" xmlns="http://www.w3.org/2000/svg">
<path d="M306.009 252.202L143.947 90.1404C117.912 64.1055 75.7014 64.1055 49.6664 90.1405L49.1403 90.6665C23.1054 116.701 23.1054 158.912 49.1403 184.947L211.202 347.009C237.237 373.044 279.448 373.044 305.483 347.009L306.009 346.483C332.044 320.448 332.044 278.237 306.009 252.202Z" fill="#FCB827"/>
<path d="M211.257 252.202L373.319 90.1405C399.354 64.1055 441.565 64.1055 467.6 90.1405L468.126 90.6666C494.161 116.702 494.161 158.913 468.126 184.947L306.064 347.009C280.029 373.044 237.818 373.044 211.783 347.009L211.257 346.483C185.222 320.448 185.222 278.237 211.257 252.202Z" fill="#F6821F"/>
<path d="M93.3338 70.3334H92.6672C55.8482 70.3334 26.0005 100.181 26.0005 137V583.667C26.0005 620.486 55.8482 650.333 92.6672 650.333H93.3338C130.153 650.333 160 620.486 160 583.667V137C160 100.181 130.153 70.3334 93.3338 70.3334Z" fill="#F6821F"/>
<path d="M354.667 523.333H694.667V583.491C694.667 620.407 659.593 650.333 616.326 650.333H354.667V523.333Z" fill="#24292E"/>
<path d="M354.667 354.349C354.667 317.338 389.742 287.333 433.008 287.333H619.852C661.171 287.333 694.667 315.987 694.667 351.333C694.667 386.679 661.171 415.333 619.852 415.333H354.667V354.349Z" fill="#2B3137"/>
<path d="M354.667 136.826C354.667 100.103 389.742 70.3334 433.008 70.3334H619.852C661.171 70.3334 694.667 98.7634 694.667 133.833C694.667 168.903 661.171 197.333 619.852 197.333H354.667V136.826Z" fill="#24292E"/>
<path d="M354.001 137C354.001 100.181 383.849 70.3334 420.667 70.3334H488.001V583.667C488.001 620.485 458.153 650.333 421.334 650.333H354.001V137Z" fill="#FCB827"/>
</svg>
